<svg width="64" height="64" viewBox="0 0 64 64" fill="none" xmlns="http://www.w3.org/2000/svg">
<g clip-path="url(#clip0_26_2)">
<path d="M13.5118 46.019C11.4562 48.6947 9.69773 50.9277 8.74522 53.4838C7.81307 55.9761 7.4345 57.1205 9.54712 54.5286C11.5173 52.12 13.3612 49.7753 16.0478 47.5622C16.235 47.61 16.4426 47.6459 16.6502 47.6898C41.0207 52.4351 58.7601 41.7004 55.6421 7C36.885 13.3682 10.3124 10.7763 13.06 43.3911C13.1658 44.5994 13.2595 45.4288 13.5118 46.019ZM19.2839 41.3335C25.6543 27.8912 42.018 23.2855 50.1346 14.098C41.3422 30.8939 34.1455 31.7193 19.2839 41.3335Z" fill="#196462"/>
<path d="M19.2836 41.3332C25.654 27.8909 42.0176 23.2852 50.1343 14.0977C41.3419 30.8936 34.1452 31.719 19.2836 41.3332Z" fill="#0F3E3C"/>
</g>
<defs>
<clipPath id="clip0_26_2">
<rect width="48" height="49" fill="white" transform="translate(8 7)"/>
</clipPath>
</defs>
</svg>
