<svg width="64" height="64" viewBox="0 0 64 64" fill="none" xmlns="http://www.w3.org/2000/svg">
<g clip-path="url(#clip0_2_2)">
<path d="M38.3092 25.1646C38.3092 25.1646 36.4389 27.9277 35.6459 25.1646C34.8529 22.399 32.2893 12.8229 31.2519 12.1322C30.212 11.4389 30.212 11.4389 30.212 11.4389C30.212 11.4389 30.0175 15.1945 28.7307 14.6983C27.4464 14.2045 17.9751 9.16958 17.1845 8.08479L16.394 7.09477C16.394 7.09477 17.2793 15.394 15.1097 13.616C15.1097 13.616 17.8853 20.5262 8.69327 21.217C8.69327 21.217 11.6509 28.9152 20.0449 33.0623C20.0449 33.0623 22.9077 37.5087 17.6783 36.8105C17.6783 36.8105 10.3666 35.8254 9.38653 34.9352C9.38653 34.9352 5.52618 42.4414 1.88431e-07 42.7357C1.88431e-07 42.7357 6.62344 46.4863 5.82793 53.0998C5.82793 53.0998 18.5636 53.202 18.0748 55.1746C17.5761 57.1571 16.6908 59.1671 16.6908 59.1671C16.6908 59.1671 28.4364 56.8504 30.212 53.6958C30.212 53.6958 32.6783 56.1646 32.8828 58.5312C32.8828 58.5312 39.5985 57.0499 38.9975 52.8055C38.9975 52.8055 42.1621 55.1696 42.5561 59.1671L43.9377 58.2319C43.9377 58.2319 43.1421 54.0898 40.2868 50.8329C40.2868 50.8329 38.9975 47.5711 42.2544 49.2544C42.2544 49.2544 49.9476 51.8204 56.4688 47.1771C56.4688 47.1771 49.2668 44.813 48.9726 42.2444C48.9726 42.2444 62.4239 33.9501 63 28.4239C63 28.4239 58.1521 28.9177 55.5885 26.8454C55.5885 26.8454 52.3242 25.8579 56.5711 14.8978C56.5711 14.8978 53.5112 16.7032 52.5312 5.83043C52.5312 5.83043 44.9227 17.4638 41.2643 13.5162C41.2643 13.5162 37.818 21.1147 38.3092 25.1646Z" fill="#218483"/>
</g>
<defs>
<clipPath id="clip0_2_2">
<rect width="63" height="63" fill="white" transform="translate(0 1)"/>
</clipPath>
</defs>
</svg>
